<svg width="150" height="150" xmlns="http://www.w3.org/2000/svg">
    <rect width="100%" height="100%" fill="#f0772b" />
    <path stroke="null" fill="#fff" d="m60.07273,61.30184c3.93223,-0.01701 7.96476,1.11125 11.02102,3.65342c1.56613,1.26766 2.83114,2.8581 3.9055,4.55148c1.93309,-3.12475 4.75672,-5.77982 8.23871,-7.05963c4.24307,-1.59286 9.03911,-1.48284 13.27489,0.07843c3.69982,1.35073 6.93481,3.70468 9.86868,6.29347c2.29518,2.0261 4.41915,4.24307 6.78281,6.19339c1.24557,1.01051 2.58393,1.95739 4.11582,2.48098c2.03582,0.69503 4.44367,0.03932 5.89956,-1.52924c1.3483,-1.46804 1.26501,-4.00558 -0.22026,-5.34637c-0.94445,-0.81499 -2.55941,-0.65106 -3.2277,0.43522c-0.58457,0.8616 -0.25671,1.93574 0.20104,2.77017c-1.21641,-0.88812 -2.43481,-2.1264 -2.43017,-3.74135c-0.25185,-1.86703 1.13312,-3.51402 2.79204,-4.16729c3.23742,-1.29462 7.29691,-0.17851 9.34023,2.67208c1.9649,2.65993 2.12131,6.15649 1.77888,9.32521c-0.41357,3.00987 -2.09701,5.81914 -4.59301,7.56135c-3.50386,2.50086 -7.94532,3.27631 -12.17116,3.22262c-4.06191,-0.11024 -8.08229,-1.02774 -11.84573,-2.54505c-6.29347,-2.53002 -12.18331,-6.02681 -18.68245,-8.04783c-2.15578,-0.83686 -4.44853,-1.28953 -6.75365,-1.42916c-1.83522,-0.01215 -3.575,-0.09787 -5.30748,0.01966c-2.11424,0.20325 -4.21612,0.63626 -6.1956,1.41171c-6.60917,2.0557 -12.58716,5.64042 -19.00059,8.17552c-5.41529,2.10673 -11.41515,3.08565 -17.16294,1.91585c-3.21533,-0.65084 -6.41608,-2.07249 -8.58644,-4.60516c-1.85731,-2.15335 -2.74786,-5.03575 -2.66015,-7.8596c-0.10273,-2.66479 0.48206,-5.49593 2.24393,-7.57107c1.63926,-1.96711 4.27974,-2.96547 6.81485,-2.7452c1.63197,0.07578 3.28625,0.78782 4.29432,2.10187c0.7929,1.03989 0.84172,2.46419 0.49421,3.68016c-0.42329,1.0938 -1.29683,1.94789 -2.24614,2.60359c0.48449,-0.81742 0.7781,-1.89641 0.20546,-2.75051c-0.70475,-1.13776 -2.43967,-1.25264 -3.35716,-0.31813c-1.13047,1.1625 -1.36796,3.06135 -0.60931,4.48542c0.82206,1.49278 2.52295,2.34423 4.1695,2.51787c2.49114,0.2154 4.65178,-1.32864 6.47971,-2.82606c3.78289,-3.25709 7.18887,-6.98363 11.38555,-9.739c3.46011,-2.3197 7.53661,-3.88827 11.743,-3.8686l0.00022,-0.00022z" />
</svg>
